<svg width="16.000000" height="16.000000" viewBox="0 0 16 16" fill="none" xmlns="http://www.w3.org/2000/svg" xmlns:xlink="http://www.w3.org/1999/xlink">
	<desc>
			Created with Pixso.
	</desc>
	<defs/>
	<path id="path" d="M6.37 0.13C5.3 0.32 3.38 1.29 2.51 2.06C1.54 2.93 0.67 4.2 0.28 5.39C0 6.23 -0.03 6.59 0.01 8.33C0.06 10.29 0.07 10.33 0.6 11.4C2.79 15.8 8.21 17.32 12.35 14.72C13.89 13.73 15.32 11.82 15.79 10.05C16.1 8.91 16.05 6.84 15.7 5.69C14.47 1.78 10.44 -0.62 6.37 0.13ZM10.32 0.97C13.95 2.2 16.13 6.14 15.19 9.74C14.91 10.76 14.22 12.08 13.56 12.81L13.07 13.36L13.06 9.84L13.06 6.33L12.26 6.33L11.46 6.33L11.41 7.08L11.37 7.85L10.75 7.9L10.13 7.94L10.03 7.24C9.99 6.87 9.84 6.26 9.72 5.93C9.53 5.36 9.53 5.26 9.74 5.04C10.02 4.74 10.03 4.49 9.8 4.41C9.65 4.36 9.68 4.28 9.87 4.06C10.15 3.74 10.19 3.39 9.97 3C9.8 2.67 8.66 1.78 8.55 1.89C8.5 1.93 8.62 2.2 8.8 2.48C8.97 2.77 9.09 3.09 9.06 3.17C9.02 3.28 8.5 3.43 7.9 3.54C7.3 3.62 6.59 3.75 6.33 3.81C5.46 3.99 5.29 3.59 5.65 2.28L5.76 1.91L5.36 2.26C4.82 2.77 4.64 3.51 4.92 4.1C5.05 4.36 5.26 4.61 5.37 4.65C5.58 4.74 5.58 4.78 5.34 5.03C4.98 5.43 5.15 5.96 5.78 6.24C6.06 6.38 6.3 6.55 6.3 6.64C6.3 6.95 4.92 8.2 4.11 8.63C3.08 9.17 2.54 9.21 2.41 8.78C2.26 8.34 2.74 7.75 3.38 7.59C4.1 7.4 4.24 7.24 4.24 6.59L4.24 6.03L3.73 6.42C3.45 6.62 3.21 6.87 3.21 6.94C3.21 7.01 3.29 7.03 3.36 6.98C3.45 6.94 3.51 6.95 3.51 7.03C3.51 7.1 3.3 7.24 3.07 7.35C2.82 7.45 2.48 7.69 2.33 7.9C1.97 8.34 1.94 9.32 2.29 9.69C2.51 9.92 2.51 10.07 2.32 11.14C2.2 11.81 2.05 12.34 1.97 12.33C1.75 12.31 1.2 11.46 0.85 10.56C0.39 9.42 0.31 7.26 0.64 6.1C1.44 3.39 3.57 1.33 6.2 0.74C7.37 0.48 9.19 0.58 10.32 0.97ZM9.53 3.29C9.53 3.71 8.47 4.3 8.38 3.94C8.37 3.85 8.55 3.74 8.8 3.68C9.13 3.59 9.24 3.49 9.24 3.2C9.24 3 9.3 2.88 9.38 2.93C9.47 2.97 9.53 3.15 9.53 3.29ZM5.08 3.68C5.04 3.83 5.01 3.71 5.01 3.43C5.01 3.16 5.04 3.04 5.08 3.17C5.11 3.32 5.11 3.55 5.08 3.68ZM7.91 3.83C7.9 3.9 7.55 4.17 7.11 4.45C6.67 4.72 6.3 5.03 6.3 5.13C6.3 5.23 6.21 5.32 6.12 5.33C5.98 5.33 5.98 5.36 6.12 5.42C6.46 5.55 6.3 5.75 5.86 5.75C5.29 5.75 5.27 5.42 5.83 4.9C6.05 4.68 6.3 4.39 6.37 4.25C6.55 3.94 7.93 3.57 7.91 3.83ZM6.05 4.12C6.11 4.16 6.12 4.25 6.08 4.32C5.98 4.48 5.42 4.22 5.42 4.01C5.42 3.9 5.71 3.94 6.05 4.12ZM7.69 4.59C7.65 4.67 7.55 4.74 7.46 4.74C7.39 4.74 7.33 4.67 7.33 4.59C7.33 4.51 7.43 4.45 7.56 4.45C7.68 4.45 7.74 4.51 7.69 4.59ZM9.44 4.54C9.57 4.58 9.63 4.68 9.59 4.75C9.49 4.91 8.65 4.93 8.65 4.77C8.65 4.46 9 4.36 9.44 4.54ZM7.05 7.07C7.4 7.58 8.05 9.04 8.06 9.36C8.06 9.47 7.87 9.3 7.64 9C7.42 8.69 7.08 8.3 6.89 8.14C6.59 7.9 6.61 7.95 7 8.58C7.43 9.27 7.71 9.95 7.58 9.95C7.53 9.95 7.27 9.85 6.96 9.72C6.23 9.43 6.15 9.56 6.81 10C7.19 10.26 7.28 10.37 7.12 10.43C7 10.47 6.89 10.66 6.86 10.85C6.8 11.33 6.58 11.24 6.08 10.55C5.76 10.08 5.64 9.76 5.64 9.29C5.64 8.74 5.61 8.68 5.46 8.9C5.2 9.23 5.23 9.88 5.51 10.42C5.7 10.78 5.71 10.88 5.54 11C5.23 11.2 4.35 10.98 3.99 10.6L3.68 10.26L3.51 10.98C3.4 11.39 3.17 11.89 2.96 12.14C2.55 12.62 2.24 12.7 2.48 12.28C2.55 12.13 2.63 11.73 2.63 11.42C2.63 11.1 2.7 10.52 2.77 10.14C2.92 9.47 2.96 9.43 3.63 9.2C4.49 8.9 5.98 7.72 6.28 7.1C6.42 6.84 6.56 6.62 6.62 6.62C6.68 6.62 6.87 6.82 7.05 7.07ZM7.94 7.37C8.4 7.98 8.53 8.33 8.43 8.68C8.31 9 8.06 8.88 8.06 8.5C8.06 8.36 7.83 7.91 7.55 7.49C7.27 7.07 7.03 6.71 7.03 6.68C7.03 6.51 7.62 6.95 7.94 7.37ZM12.56 6.85C12.51 6.98 12.47 8.08 12.47 9.32L12.47 11.55L12.1 11.55L11.73 11.55L11.73 9.08L11.73 6.62L12.19 6.62C12.54 6.62 12.63 6.66 12.56 6.85ZM11.03 9.84C10.99 11.69 10.96 11.84 10.63 11.84C10.44 11.84 10.41 11.57 10.41 10.26C10.41 9.39 10.37 8.58 10.32 8.45C10.25 8.27 10.32 8.21 10.65 8.21L11.07 8.21L11.03 9.84ZM2.63 9.37C2.63 9.45 2.6 9.52 2.57 9.52C2.52 9.52 2.45 9.45 2.41 9.37C2.36 9.29 2.39 9.23 2.46 9.23C2.55 9.23 2.63 9.29 2.63 9.37ZM9.62 9.75C9.57 9.88 9.53 10.43 9.53 10.98C9.53 11.94 9.52 11.98 9.18 11.98C8.83 11.98 8.81 11.94 8.77 10.75L8.72 9.52L9.22 9.52C9.6 9.52 9.69 9.56 9.62 9.75ZM8.09 11.47C8.03 12.04 7.87 12.27 7.53 12.27C7.36 12.27 7.18 11.02 7.31 10.88C7.36 10.84 7.56 10.82 7.77 10.85C8.11 10.89 8.14 10.95 8.09 11.47ZM6.59 11.89C6.59 12.15 6.37 12.41 6.14 12.41C5.99 12.41 5.86 12.39 5.86 12.36C5.86 12.33 5.81 12.2 5.77 12.07C5.7 11.88 5.78 11.84 6.14 11.84C6.39 11.84 6.59 11.86 6.59 11.89ZM4.64 12.07C4.59 12.11 4.46 12.13 4.36 12.08C4.24 12.04 4.29 11.99 4.45 11.99C4.61 11.98 4.7 12.02 4.64 12.07ZM4.3 12.47L4.7 12.68L4.12 12.73C3.6 12.78 3.55 12.75 3.67 12.53C3.85 12.21 3.82 12.23 4.3 12.47ZM4.84 13.3C4.61 13.39 4.43 13.39 4.33 13.28C4.23 13.18 4.35 13.14 4.7 13.15C5.17 13.15 5.18 13.17 4.84 13.3Z" fill="#466484" fill-opacity="1.000000" fill-rule="nonzero"/>
	<path id="path" d="M2.51 2.06C1.54 2.93 0.67 4.2 0.28 5.39C0 6.23 -0.03 6.59 0.01 8.33C0.06 10.29 0.07 10.33 0.6 11.4C2.79 15.8 8.21 17.32 12.35 14.72C13.89 13.73 15.32 11.82 15.79 10.05C16.1 8.91 16.05 6.84 15.7 5.69C14.47 1.78 10.44 -0.62 6.37 0.13C5.3 0.32 3.38 1.29 2.51 2.06ZM15.19 9.74C14.91 10.76 14.22 12.08 13.56 12.81L13.07 13.36L13.06 9.84L13.06 6.33L12.26 6.33L11.46 6.33L11.41 7.08L11.37 7.85L10.75 7.9L10.13 7.94L10.03 7.24C9.99 6.87 9.84 6.26 9.72 5.93C9.53 5.36 9.53 5.26 9.74 5.04C10.02 4.74 10.03 4.49 9.8 4.41C9.65 4.36 9.68 4.28 9.87 4.06C10.15 3.74 10.19 3.39 9.97 3C9.8 2.67 8.66 1.78 8.55 1.89C8.5 1.93 8.62 2.2 8.8 2.48C8.97 2.77 9.09 3.09 9.06 3.17C9.02 3.28 8.5 3.43 7.9 3.54C7.3 3.62 6.59 3.75 6.33 3.81C5.46 3.99 5.29 3.59 5.65 2.28L5.76 1.91L5.36 2.26C4.82 2.77 4.64 3.51 4.92 4.1C5.05 4.36 5.26 4.61 5.37 4.65C5.58 4.74 5.58 4.78 5.34 5.03C4.98 5.43 5.15 5.96 5.78 6.24C6.06 6.38 6.3 6.55 6.3 6.64C6.3 6.95 4.92 8.2 4.11 8.63C3.08 9.17 2.54 9.21 2.41 8.78C2.26 8.34 2.74 7.75 3.38 7.59C4.1 7.4 4.24 7.24 4.24 6.59L4.24 6.03L3.73 6.42C3.45 6.62 3.21 6.87 3.21 6.94C3.21 7.01 3.29 7.03 3.36 6.98C3.45 6.94 3.51 6.95 3.51 7.03C3.51 7.1 3.3 7.24 3.07 7.35C2.82 7.45 2.48 7.69 2.33 7.9C1.97 8.34 1.94 9.32 2.29 9.69C2.51 9.92 2.51 10.07 2.32 11.14C2.2 11.81 2.05 12.34 1.97 12.33C1.75 12.31 1.2 11.46 0.85 10.56C0.39 9.42 0.31 7.26 0.64 6.1C1.44 3.39 3.57 1.33 6.2 0.74C7.37 0.48 9.19 0.58 10.32 0.97C13.95 2.2 16.13 6.14 15.19 9.74ZM8.38 3.94C8.37 3.85 8.55 3.74 8.8 3.68C9.13 3.59 9.24 3.49 9.24 3.2C9.24 3 9.3 2.88 9.38 2.93C9.47 2.97 9.53 3.15 9.53 3.29C9.53 3.71 8.47 4.3 8.38 3.94ZM5.01 3.43C5.01 3.16 5.04 3.04 5.08 3.17C5.11 3.32 5.11 3.55 5.08 3.68C5.04 3.83 5.01 3.71 5.01 3.43ZM7.11 4.45C6.67 4.72 6.3 5.03 6.3 5.13C6.3 5.23 6.21 5.32 6.12 5.33C5.98 5.33 5.98 5.36 6.12 5.42C6.46 5.55 6.3 5.75 5.86 5.75C5.29 5.75 5.27 5.42 5.83 4.9C6.05 4.68 6.3 4.39 6.37 4.25C6.55 3.94 7.93 3.57 7.91 3.83C7.9 3.9 7.55 4.17 7.11 4.45ZM6.08 4.32C5.98 4.48 5.42 4.22 5.42 4.01C5.42 3.9 5.71 3.94 6.05 4.12C6.11 4.16 6.12 4.25 6.08 4.32ZM7.46 4.74C7.39 4.74 7.33 4.67 7.33 4.59C7.33 4.51 7.43 4.45 7.56 4.45C7.68 4.45 7.74 4.51 7.69 4.59C7.65 4.67 7.55 4.74 7.46 4.74ZM9.59 4.75C9.49 4.91 8.65 4.93 8.65 4.77C8.65 4.46 9 4.36 9.44 4.54C9.57 4.58 9.63 4.68 9.59 4.75ZM8.06 9.36C8.06 9.47 7.87 9.3 7.64 9C7.42 8.69 7.08 8.3 6.89 8.14C6.59 7.9 6.61 7.95 7 8.58C7.43 9.27 7.71 9.95 7.58 9.95C7.53 9.95 7.27 9.85 6.96 9.72C6.23 9.43 6.15 9.56 6.81 10C7.19 10.26 7.28 10.37 7.12 10.43C7 10.47 6.89 10.66 6.86 10.85C6.8 11.33 6.58 11.24 6.08 10.55C5.76 10.08 5.64 9.76 5.64 9.29C5.64 8.74 5.61 8.68 5.46 8.9C5.2 9.23 5.23 9.88 5.51 10.42C5.7 10.78 5.71 10.88 5.54 11C5.23 11.2 4.35 10.98 3.99 10.6L3.68 10.26L3.51 10.98C3.4 11.39 3.17 11.89 2.96 12.14C2.55 12.62 2.24 12.7 2.48 12.28C2.55 12.13 2.63 11.73 2.63 11.42C2.63 11.1 2.7 10.52 2.77 10.14C2.92 9.47 2.96 9.43 3.63 9.2C4.49 8.9 5.98 7.72 6.28 7.1C6.42 6.84 6.56 6.62 6.62 6.62C6.68 6.62 6.87 6.82 7.05 7.07C7.4 7.58 8.05 9.04 8.06 9.36ZM8.43 8.68C8.31 9 8.06 8.88 8.06 8.5C8.06 8.36 7.83 7.91 7.55 7.49C7.27 7.07 7.03 6.71 7.03 6.68C7.03 6.51 7.62 6.95 7.94 7.37C8.4 7.98 8.53 8.33 8.43 8.68ZM12.47 9.32L12.47 11.55L12.1 11.55L11.73 11.55L11.73 9.08L11.73 6.62L12.19 6.62C12.54 6.62 12.63 6.66 12.56 6.85C12.51 6.98 12.47 8.08 12.47 9.32ZM10.63 11.84C10.44 11.84 10.41 11.57 10.41 10.26C10.41 9.39 10.37 8.58 10.32 8.45C10.25 8.27 10.32 8.21 10.65 8.21L11.07 8.21L11.03 9.84C10.99 11.69 10.96 11.84 10.63 11.84ZM2.57 9.52C2.52 9.52 2.45 9.45 2.41 9.37C2.36 9.29 2.39 9.23 2.46 9.23C2.55 9.23 2.63 9.29 2.63 9.37C2.63 9.45 2.6 9.52 2.57 9.52ZM9.53 10.98C9.53 11.94 9.52 11.98 9.18 11.98C8.83 11.98 8.81 11.94 8.77 10.75L8.72 9.52L9.22 9.52C9.6 9.52 9.69 9.56 9.62 9.75C9.57 9.88 9.53 10.43 9.53 10.98ZM7.53 12.27C7.36 12.27 7.18 11.02 7.31 10.88C7.36 10.84 7.56 10.82 7.77 10.85C8.11 10.89 8.14 10.95 8.09 11.47C8.03 12.04 7.87 12.27 7.53 12.27ZM6.14 12.41C5.99 12.41 5.86 12.39 5.86 12.36C5.86 12.33 5.81 12.2 5.77 12.07C5.7 11.88 5.78 11.84 6.14 11.84C6.39 11.84 6.59 11.86 6.59 11.89C6.59 12.15 6.37 12.41 6.14 12.41ZM4.36 12.08C4.24 12.04 4.29 11.99 4.45 11.99C4.61 11.98 4.7 12.02 4.64 12.07C4.59 12.11 4.46 12.13 4.36 12.08ZM4.7 12.68L4.12 12.73C3.6 12.78 3.55 12.75 3.67 12.53C3.85 12.21 3.82 12.23 4.3 12.47L4.7 12.68ZM4.33 13.28C4.23 13.18 4.35 13.14 4.7 13.15C5.17 13.15 5.18 13.17 4.84 13.3C4.61 13.39 4.43 13.39 4.33 13.28Z" stroke="#FF0000" stroke-opacity="0" stroke-width="0.133333"/>
	<path id="path" d="M6.86 1.44C6.71 1.57 6.67 1.73 6.74 1.77C6.81 1.81 6.84 1.93 6.8 2.03C6.77 2.13 6.87 2.2 7.11 2.2C7.36 2.2 7.47 2.12 7.47 1.96C7.47 1.83 7.56 1.68 7.67 1.65C7.77 1.61 7.74 1.57 7.59 1.57C7.46 1.55 7.28 1.46 7.22 1.36C7.14 1.22 7.05 1.23 6.86 1.44Z" fill="#466484" fill-opacity="1.000000" fill-rule="nonzero"/>
	<path id="path" d="M6.74 1.77C6.81 1.81 6.84 1.93 6.8 2.03C6.77 2.13 6.87 2.2 7.11 2.2C7.36 2.2 7.47 2.12 7.47 1.96C7.47 1.83 7.56 1.68 7.67 1.65C7.77 1.61 7.74 1.57 7.59 1.57C7.46 1.55 7.28 1.46 7.22 1.36C7.14 1.22 7.05 1.23 6.86 1.44C6.71 1.57 6.67 1.73 6.74 1.77Z" stroke="#FF0000" stroke-opacity="0" stroke-width="0.133333"/>
	<path id="path" d="M10.74 2.22C10.52 2.46 10.66 2.86 11 2.86C11.35 2.86 11.47 2.36 11.16 2.17C10.99 2.07 10.87 2.07 10.74 2.22Z" fill="#466484" fill-opacity="1.000000" fill-rule="nonzero"/>
	<path id="path" d="M11 2.86C11.35 2.86 11.47 2.36 11.16 2.17C10.99 2.07 10.87 2.07 10.74 2.22C10.52 2.46 10.66 2.86 11 2.86Z" stroke="#FF0000" stroke-opacity="0" stroke-width="0.133333"/>
	<path id="path" d="M3.64 2.91C3.35 3.13 3.46 3.58 3.8 3.58C4.11 3.58 4.27 3.13 4.02 2.91C3.9 2.8 3.8 2.8 3.64 2.91Z" fill="#466484" fill-opacity="1.000000" fill-rule="nonzero"/>
	<path id="path" d="M3.8 3.58C4.11 3.58 4.27 3.13 4.02 2.91C3.9 2.8 3.8 2.8 3.64 2.91C3.35 3.13 3.46 3.58 3.8 3.58Z" stroke="#FF0000" stroke-opacity="0" stroke-width="0.133333"/>
	<path id="path" d="M12.57 3.93C12.51 4.06 12.38 4.16 12.25 4.16C12.13 4.16 12.03 4.22 12.03 4.3C12.03 4.38 12.1 4.45 12.17 4.45C12.26 4.45 12.32 4.58 12.32 4.75C12.32 4.97 12.38 5.03 12.56 4.97C12.69 4.91 12.89 4.96 13.01 5.06C13.19 5.2 13.22 5.19 13.17 4.94C13.16 4.77 13.22 4.54 13.34 4.41C13.51 4.19 13.5 4.16 13.28 4.16C13.13 4.16 12.94 4.06 12.84 3.93C12.67 3.7 12.66 3.7 12.57 3.93Z" fill="#466484" fill-opacity="1.000000" fill-rule="nonzero"/>
	<path id="path" d="M12.25 4.16C12.13 4.16 12.03 4.22 12.03 4.3C12.03 4.38 12.1 4.45 12.17 4.45C12.26 4.45 12.32 4.58 12.32 4.75C12.32 4.97 12.38 5.03 12.56 4.97C12.69 4.91 12.89 4.96 13.01 5.06C13.19 5.2 13.22 5.19 13.17 4.94C13.16 4.77 13.22 4.54 13.34 4.41C13.51 4.19 13.5 4.16 13.28 4.16C13.13 4.16 12.94 4.06 12.84 3.93C12.67 3.7 12.66 3.7 12.57 3.93C12.51 4.06 12.38 4.16 12.25 4.16Z" stroke="#FF0000" stroke-opacity="0" stroke-width="0.133333"/>
	<path id="path" d="M2.33 4.45C2.33 4.52 2.23 4.59 2.1 4.59C1.91 4.59 1.89 4.64 2.04 4.81C2.13 4.93 2.17 5.07 2.13 5.14C2.08 5.22 2.24 5.27 2.48 5.26C2.74 5.25 2.89 5.17 2.86 5.09C2.82 5 2.88 4.84 2.96 4.75C3.08 4.64 3.07 4.59 2.88 4.59C2.74 4.59 2.63 4.52 2.63 4.45C2.63 4.36 2.57 4.3 2.48 4.3C2.41 4.3 2.33 4.36 2.33 4.45Z" fill="#466484" fill-opacity="1.000000" fill-rule="nonzero"/>
	<path id="path" d="M2.1 4.59C1.91 4.59 1.89 4.64 2.04 4.81C2.13 4.93 2.17 5.07 2.13 5.14C2.08 5.22 2.24 5.27 2.48 5.26C2.74 5.25 2.89 5.17 2.86 5.09C2.82 5 2.88 4.84 2.96 4.75C3.08 4.64 3.07 4.59 2.88 4.59C2.74 4.59 2.63 4.52 2.63 4.45C2.63 4.36 2.57 4.3 2.48 4.3C2.41 4.3 2.33 4.36 2.33 4.45C2.33 4.52 2.23 4.59 2.1 4.59Z" stroke="#FF0000" stroke-opacity="0" stroke-width="0.133333"/>
	<path id="path" d="M1.22 6.82C1.14 6.91 1.07 7.11 1.07 7.29C1.07 7.52 1.14 7.56 1.39 7.52C1.57 7.49 1.75 7.35 1.79 7.22C1.88 6.9 1.44 6.59 1.22 6.82Z" fill="#466484" fill-opacity="1.000000" fill-rule="nonzero"/>
	<path id="path" d="M1.07 7.29C1.07 7.52 1.14 7.56 1.39 7.52C1.57 7.49 1.75 7.35 1.79 7.22C1.88 6.9 1.44 6.59 1.22 6.82C1.14 6.91 1.07 7.11 1.07 7.29Z" stroke="#FF0000" stroke-opacity="0" stroke-width="0.133333"/>
	<path id="path" d="M14.07 7.26C13.75 7.48 13.92 7.84 14.36 7.9C14.57 7.91 14.69 7.88 14.63 7.84C14.57 7.78 14.58 7.66 14.67 7.58C14.88 7.32 14.35 7.04 14.07 7.26Z" fill="#466484" fill-opacity="1.000000" fill-rule="nonzero"/>
	<path id="path" d="M14.36 7.9C14.57 7.91 14.69 7.88 14.63 7.84C14.57 7.78 14.58 7.66 14.67 7.58C14.88 7.32 14.35 7.04 14.07 7.26C13.75 7.48 13.92 7.84 14.36 7.9Z" stroke="#FF0000" stroke-opacity="0" stroke-width="0.133333"/>
	<path id="path" d="M13.72 9.89C13.56 10.01 13.51 10.1 13.63 10.1C13.73 10.1 13.79 10.18 13.75 10.3C13.69 10.45 13.78 10.49 14.01 10.47C14.2 10.47 14.32 10.43 14.29 10.4C14.26 10.37 14.29 10.27 14.38 10.18C14.61 9.89 14.06 9.66 13.72 9.89Z" fill="#466484" fill-opacity="1.000000" fill-rule="nonzero"/>
	<path id="path" d="M13.63 10.1C13.73 10.1 13.79 10.18 13.75 10.3C13.69 10.45 13.78 10.49 14.01 10.47C14.2 10.47 14.32 10.43 14.29 10.4C14.26 10.37 14.29 10.27 14.38 10.18C14.61 9.89 14.06 9.66 13.72 9.89C13.56 10.01 13.51 10.1 13.63 10.1Z" stroke="#FF0000" stroke-opacity="0" stroke-width="0.133333"/>
</svg>
